<svg width="560" height="370" viewBox="0 0 560 370" fill="none" xmlns="http://www.w3.org/2000/svg">
  <defs>
    <linearGradient id="bg" x1="20" y1="20" x2="540" y2="350" gradientUnits="userSpaceOnUse">
      <stop stop-color="#1d2f53"/>
      <stop offset="1" stop-color="#0f1c33"/>
    </linearGradient>
    <linearGradient id="card" x1="0" y1="0" x2="0" y2="1">
      <stop stop-color="#5bb4ff"/>
      <stop offset="1" stop-color="#6ce5ff"/>
    </linearGradient>
  </defs>
  <rect x="16" y="16" width="528" height="338" rx="30" fill="url(#bg)"/>
  <rect x="52" y="52" width="156" height="84" rx="18" fill="rgba(108,229,255,0.12)" stroke="rgba(173,183,214,0.3)"/>
  <rect x="52" y="148" width="156" height="84" rx="18" fill="rgba(173,183,214,0.12)" stroke="rgba(173,183,214,0.4)"/>
  <rect x="52" y="244" width="156" height="84" rx="18" fill="rgba(108,229,255,0.1)" stroke="rgba(173,183,214,0.35)"/>
  <path d="M255 86h220" stroke="#5ec7ff" stroke-width="8" stroke-linecap="round"/>
  <path d="M255 170h220" stroke="#5ec7ff" stroke-width="8" stroke-linecap="round"/>
  <path d="M255 254h220" stroke="#5ec7ff" stroke-width="8" stroke-linecap="round"/>
  <rect x="258" y="102" width="210" height="38" rx="12" fill="url(#card)" opacity="0.35"/>
  <rect x="258" y="186" width="210" height="38" rx="12" fill="url(#card)" opacity="0.22"/>
  <rect x="258" y="270" width="210" height="38" rx="12" fill="url(#card)" opacity="0.22"/>
  <circle cx="458" cy="54" r="24" fill="#6ce5ff" opacity="0.85"/>
  <circle cx="458" cy="54" r="9" fill="#08122a"/>
  <circle cx="500" cy="86" r="11" fill="#5bb4ff" opacity="0.85"/>
  <circle cx="500" cy="86" r="4" fill="#08122a"/>
  <circle cx="504" cy="316" r="15" fill="#6ce5ff" opacity="0.85"/>
  <circle cx="504" cy="316" r="5" fill="#08122a"/>
</svg>
